<?xml version="1.0" encoding="UTF-8"?>
<svg enable-background="new 0 0 210.7 202.7" version="1.1" viewBox="0 0 210.7 202.7" xmlns="http://www.w3.org/2000/svg">
 <style type="text/css">.st0{fill:#5ABA47;} .st1{fill:#E73225;} .st2{fill:#1776A8;} .st3{fill:#0ABDC7;} .st4{fill:#F47C20;} .st5{fill:#8C66AC;} .st6{fill:#DC7EB3;} .st7{fill:#E5E139;}</style>
 <path class="st0" d="m156.6 97.3c-0.9-0.6-1.9-1.2-2.9-1.7l3.4-6.1-16.5 5.1 15.1 8.3-1.9-6.1c0.8 0.4 1.5 0.8 2.2 1.3 4.4 3.1 7.5 8 8.2 13.3l1-0.1c-0.8-5.5-4-10.7-8.6-14z"/>
 <path class="st1" d="m74.3 118l-17.2-0.8 4.4 4.6c-0.9 0-1.7-0.1-2.6-0.2-5.3-0.8-10.3-3.9-13.3-8.4l-0.8 0.6c3.2 4.7 8.4 7.9 13.9 8.8 1 0.2 2 0.2 3 0.2h0.3l-0.3 7 12.6-11.8z"/>
 <path class="st2" d="m97.7 136.1l-13.9 10.2 6.3 0.8c-0.7 0.5-1.4 1-2.2 1.5-4.6 2.7-10.4 3.4-15.6 1.9l-0.3 1c1.9 0.6 3.9 0.9 5.9 0.9 3.7 0 7.4-1 10.5-2.8 1-0.6 1.9-1.2 2.8-2l4.1 5.6 2.4-17.1z"/>
 <path class="st0" d="m104.7 192.6c-33.6 0-61-41.7-61-93s27.3-93 61-93c33.6 0 61 41.7 61 93-0.1 51.3-27.4 93-61 93zm0-184.9c-33.1 0-60 41.3-60 92s26.9 92 60 92 60-41.3 60-92c-0.1-50.8-27-92-60-92z"/>
 <path class="st3" d="m83.7 188c-6 0-11.9-1.2-17.3-3.7-30.7-13.8-38.4-63.1-17.3-109.8 10.3-22.6 25.6-41.2 43.3-52.5 17.8-11.3 35.7-13.8 50.6-7s24.8 21.9 28.1 42.7c3.2 20.7-0.6 44.6-10.9 67.1-17.4 38.3-48.8 63.2-76.5 63.2zm41.8-175.7c-10.4 0-21.5 3.6-32.6 10.6-17.5 11.1-32.7 29.6-42.9 52-20.9 46.2-13.4 94.9 16.7 108.5s71.6-12.9 92.5-59.1l0.5 0.2-0.5-0.2c10.1-22.4 14-46.1 10.8-66.6-3.2-20.4-12.9-35.3-27.5-41.9-5.2-2.3-11-3.5-17-3.5z"/>
 <path class="st4" d="m73.5 178.9c-13 0-24.6-3.9-33.1-12.1-11.8-11.3-16.2-28.9-12.3-49.6 3.8-20.6 15.4-41.8 32.5-59.7 35.4-37 84-48.2 108.3-25 11.8 11.3 16.2 28.9 12.3 49.6-3.8 20.6-15.4 41.8-32.5 59.7l-0.4-0.3 0.4 0.3c-22.9 24-51.4 37.1-75.2 37.1zm62.3-157.5c-23.5 0-51.7 13.1-74.4 36.8-17.1 17.8-28.5 38.8-32.3 59.2-3.8 20.3 0.5 37.6 12 48.7 23.9 22.9 71.8 11.7 106.9-25 17-17.8 28.5-38.8 32.3-59.2 3.8-20.3-0.5-37.6-12-48.7-8.4-8-19.8-11.8-32.5-11.8z"/>
 <path class="st5" d="m79.1 166c-28.8 0-52.5-11.3-60.7-31.6-6.1-15.1-2.8-33 9.2-50.2s31.3-31.7 54.3-41c23-9.2 47-12.1 67.6-8s35.4 14.7 41.4 29.9c6.1 15.1 2.8 33-9.2 50.2s-31.3 31.7-54.3 41c-16.5 6.5-33.1 9.7-48.3 9.7zm51.1-131.7c-15.4 0-31.9 3.3-47.9 9.7-22.8 9.2-41.9 23.6-53.8 40.6-11.8 17-15.1 34.5-9.1 49.3 12.3 30.7 60.6 40.3 107.6 21.4l0.2 0.5-0.2-0.5c22.8-9.2 41.9-23.6 53.8-40.6 11.8-17 15.1-34.5 9.1-49.3s-20.4-25.2-40.7-29.3c-6-1.2-12.4-1.8-19-1.8z"/>
 <path class="st6" d="m102.8 160c-49.7 0-90.3-26-91-58.8-0.8-33.6 40.2-61.9 91.5-63.1s93.6 25.2 94.3 58.8c0.4 16.3-9 31.9-26.3 43.8s-40.4 18.7-65.2 19.3h-3.3zm3.8-121h-3.3c-50.7 1.2-91.3 29-90.5 62.1s42.6 59 93.3 57.8c24.6-0.6 47.6-7.4 64.7-19.1s26.2-27 25.9-42.9c-0.8-32.3-40.9-57.9-90.1-57.9z"/>
 <path class="st2" d="m131 165.8c-15.8 0-33.1-3.5-50.2-10.7-47.1-20-74.8-61.5-61.7-92.4s62.2-39.8 109.4-19.7c22.8 9.7 41.8 24.6 53.5 42 11.7 17.5 14.6 35.4 8.3 50.4-8.5 19.7-31.5 30.4-59.3 30.4zm-49.8-11.6c46.7 19.8 95.2 11.2 108.1-19.2 6.2-14.7 3.3-32.3-8.2-49.5-11.6-17.3-30.4-32.1-53-41.7-46.7-19.8-95.1-11.2-108.1 19.3-12.9 30.4 14.6 71.3 61.2 91.1z"/>
 <path class="st7" d="m136.5 176.2c-22.9 0-50-11.2-73-32.2-37.8-34.6-50.1-82.9-27.5-107.7 22.7-24.8 71.9-16.9 109.8 17.7 18.3 16.7 31.3 37.1 36.5 57.4 5.2 20.4 2 38.2-9 50.3-8.9 9.8-21.9 14.5-36.8 14.5zm-72.3-32.9c37.4 34.2 86 42.2 108.3 17.8 10.8-11.8 13.9-29.3 8.7-49.4s-18-40.3-36.2-56.9c-37.3-34.3-85.9-42.2-108.2-17.8s-10 72.1 27.4 106.3z"/>
 <path class="st1" d="m124.7 188.4c-10.8 0-22.4-3.8-33.7-11.4-17.5-11.6-32.5-30.5-42.3-53.3-20.3-47-11.7-96.1 19.2-109.4s72.5 14.2 92.8 61.2c20.3 47.1 11.7 96.2-19.2 109.5-5.3 2.3-10.9 3.4-16.8 3.4zm-75.1-65c9.7 22.6 24.6 41.4 41.9 52.8 17.2 11.4 34.8 14.2 49.5 7.9 30.4-13.1 38.7-61.6 18.7-108.2-20-46.5-61-73.8-91.4-60.7s-38.8 61.6-18.7 108.2z"/>
 <path class="st7" d="m133 55.3c-1.1 0.3-2.1 0.7-3.2 1.2l-2.6-6.5-6.5 16 16-6.5-5.9-2.4c0.8-0.4 1.6-0.7 2.5-0.9 5.1-1.5 11-0.7 15.6 2l0.5-0.9c-4.8-2.8-10.9-3.6-16.4-2z"/>
 <path class="st6" d="m95.2 46.8c3.1-4.3 8.2-7.3 13.5-7.9l-0.1-1c-5.6 0.7-10.9 3.8-14.2 8.4-0.7 0.9-1.2 1.9-1.7 2.9l-6-3.5 4.7 16.6 8.6-14.9-6.2 1.6c0.4-0.8 0.9-1.5 1.4-2.2z"/>
 <path class="st4" d="m72.9 88.6l-12.4-11.9 0.2 6.4c-0.7-0.6-1.3-1.2-1.8-1.9-3.5-4.1-5.1-9.7-4.5-15l-1-0.1c-0.7 5.6 1.1 11.5 4.7 15.8 0.7 0.9 1.5 1.7 2.4 2.4l-4.8 5 17.2-0.7z"/>
 <path class="st5" d="m147.6 132.8l-14.1-9.9 2.8 17 3.6-5.2c0.2 0.9 0.3 1.7 0.3 2.6 0.3 5.3-1.7 10.8-5.5 14.7l0.7 0.7c3.9-4.1 6.1-9.8 5.7-15.5-0.1-1.1-0.2-2.2-0.5-3.3l7-1.1z"/>
</svg>
