<?xml version="1.0" encoding="UTF-8" standalone="no"?>
<!DOCTYPE svg PUBLIC "-//W3C//DTD SVG 1.1//EN" "http://www.w3.org/Graphics/SVG/1.1/DTD/svg11.dtd">
<svg width="100%" height="100%" viewBox="0 0 1000 1000" version="1.1" xmlns="http://www.w3.org/2000/svg" xmlns:xlink="http://www.w3.org/1999/xlink" xml:space="preserve" xmlns:serif="http://www.serif.com/" style="fill-rule:evenodd;clip-rule:evenodd;stroke-linejoin:round;stroke-miterlimit:2;">
    <g transform="matrix(1.2386,0,0,1.2386,-72.9951,-15.1341)">
        <path d="M632.249,388.957C771.634,333.908 861.724,316.671 861.366,310.443C861.009,304.216 729.993,285.883 588.326,232.525C520.072,206.818 423.663,180.426 326.912,201.772C242.179,220.466 64.676,295.612 64.021,299.333C63.367,303.05 139.663,341.407 162.161,352.159C211.073,375.536 244.59,391.798 244.59,391.798C244.59,391.798 232.358,449.992 230.113,451.861C227.868,453.731 157.807,462.618 154.104,468.943C150.608,474.915 220.616,806.525 230.113,806.473C239.611,806.42 287.729,408.625 287.729,408.625L320.079,418.892C344.343,443.85 476.668,699.191 555.796,774.816C588.889,806.444 732.784,780.158 731.765,774.816C730.158,766.386 685.018,797.984 555.796,656.511C520.557,617.932 378.577,442.172 377.066,433.035C491.442,439.718 566.022,415.113 632.249,388.957ZM486.531,236.467C446.631,230.543 495.845,239.753 494.728,294.504C493.983,331.03 452.939,367.039 397.907,365.718C341.405,364.363 297.984,325.818 299.217,285.99C300.401,247.767 333.691,234.978 326.912,236.467C234.122,256.847 146.678,296.231 146.515,299.333C146.341,302.661 195.153,328.724 231.068,344.109C293.035,370.655 359.808,395.838 434.276,397.499C479.53,398.509 555.45,378.984 588.326,365.718C661.245,336.293 697.413,314.103 696.823,310.443C696.278,307.06 588.935,251.67 486.531,236.467ZM73.641,201.772C81.251,203.547 234.607,115.549 389.446,115.509C500.695,115.48 812.251,194.387 814.751,188.914C817.251,183.441 535.759,53.996 363.085,46.794C317.584,44.896 254.173,54.194 206.025,74.594C180.728,85.312 67.954,200.445 73.641,201.772Z" style="fill:rgb(0,52,136);"/>
    </g>
</svg>
