<?xml version="1.0" standalone="no"?>
<!DOCTYPE svg PUBLIC "-//W3C//DTD SVG 20010904//EN"
 "http://www.w3.org/TR/2001/REC-SVG-20010904/DTD/svg10.dtd">
<svg version="1.0" xmlns="http://www.w3.org/2000/svg"
 width="1179.000000pt" height="1280.000000pt" viewBox="0 0 1179.000000 1280.000000"
 preserveAspectRatio="xMidYMid meet">
<metadata>
Created by potrace 1.15, written by Peter Selinger 2001-2017
</metadata>
<g transform="translate(0.000000,1280.000000) scale(0.100000,-0.100000)"
fill="#000000" stroke="none">
<path d="M7709 12771 c-99 -62 -234 -207 -336 -361 -115 -172 -191 -372 -200
-527 -3 -52 -9 -90 -14 -86 -14 16 -81 583 -95 811 -4 62 -11 115 -15 118 -12
7 -46 -66 -68 -148 -67 -249 -54 -459 53 -828 38 -131 53 -221 43 -262 -9 -34
-74 -63 -120 -54 -132 25 -242 213 -403 686 -84 250 -84 248 -94 230 -5 -9
-14 -62 -20 -118 -29 -270 58 -543 259 -813 183 -245 384 -433 918 -860 411
-329 504 -409 653 -558 199 -199 350 -415 350 -500 0 -34 4 -34 -130 -5 -96
22 -137 51 -246 179 -109 128 -155 163 -321 248 -153 78 -413 190 -421 182
-11 -11 -5 -302 8 -405 17 -135 53 -269 95 -357 42 -87 139 -194 266 -295 147
-116 182 -129 391 -144 93 -6 98 -7 93 -28 -3 -11 -14 -79 -25 -151 -62 -391
-171 -748 -262 -851 -105 -120 -388 -167 -1133 -189 -245 -8 -339 -17 -525
-55 -80 -16 -206 -42 -280 -56 l-135 -27 -1800 -7 c-1797 -8 -2204 -13 -2366
-30 -289 -32 -613 -174 -809 -356 -39 -36 -56 -44 -123 -57 -219 -44 -436
-219 -623 -502 -143 -217 -169 -296 -214 -650 -17 -139 -60 -573 -60 -615 0
-8 60 44 133 115 72 72 176 173 230 225 l97 95 24 -30 c13 -17 27 -28 30 -25
3 3 46 80 97 170 130 234 134 234 142 33 10 -232 42 -407 123 -680 122 -410
144 -513 144 -679 0 -193 -50 -362 -150 -513 -135 -201 -370 -370 -644 -463
l-99 -33 7 -410 c3 -225 11 -745 16 -1155 5 -410 12 -876 16 -1037 l6 -292 67
45 66 44 2 -37 c13 -205 48 -404 81 -470 45 -87 98 -108 267 -107 202 2 368
48 418 116 28 37 17 82 -43 170 -82 123 -107 147 -168 158 -76 14 -113 34
-173 95 -66 67 -115 145 -134 210 -23 81 -36 249 -44 580 -7 304 2 1223 14
1380 l6 81 192 96 c106 54 281 145 390 203 108 58 204 108 211 111 10 4 6 -22
-16 -92 -25 -79 -47 -122 -125 -241 l-94 -144 27 -37 c15 -20 53 -68 84 -107
317 -393 817 -1081 1003 -1380 156 -252 172 -289 226 -545 7 -34 8 -33 35 50
15 47 30 92 33 100 2 9 28 -31 61 -95 51 -100 67 -121 172 -226 80 -80 132
-123 170 -142 87 -42 248 -60 332 -37 51 15 76 50 84 121 4 32 9 59 13 59 3 0
18 11 33 25 24 22 26 29 16 49 -18 42 -116 102 -253 158 -33 14 -133 78 -222
143 l-163 117 0 64 0 64 -170 180 c-464 493 -723 852 -801 1110 -16 52 -23
102 -23 163 -1 104 -15 87 170 214 264 182 606 464 799 657 132 133 207 236
389 539 59 97 111 177 115 177 4 0 67 -20 141 -45 282 -95 525 -164 750 -212
119 -25 637 -25 885 0 320 33 600 67 912 112 349 51 326 48 319 37 -11 -17
-66 -251 -85 -362 -32 -179 -56 -387 -106 -890 -81 -827 -130 -1151 -234
-1553 -30 -114 -75 -389 -68 -410 2 -6 23 24 48 66 24 42 47 77 50 77 8 0 29
-208 29 -286 0 -45 -7 -74 -31 -124 -59 -125 -68 -211 -32 -298 58 -140 562
-206 672 -88 20 22 23 31 16 72 l-7 47 41 -7 c40 -6 41 -5 41 22 0 23 -28 55
-158 183 -175 171 -203 213 -222 329 -20 130 -5 449 36 775 33 262 108 571
180 749 50 124 392 816 403 816 4 0 29 -48 56 -107 26 -60 115 -243 196 -408
163 -333 178 -370 279 -735 39 -140 89 -310 110 -377 22 -66 46 -163 55 -215
26 -163 38 -418 30 -657 l-7 -225 40 36 c22 20 50 42 62 48 53 28 101 -20 158
-158 40 -99 45 -156 24 -286 -13 -82 -9 -129 12 -157 20 -29 461 -51 577 -29
67 13 89 36 89 97 0 91 -16 121 -118 221 -52 50 -100 92 -107 92 -7 0 -47 33
-88 73 -65 62 -84 88 -122 170 -84 176 -174 488 -245 847 -41 208 -143 821
-174 1050 -52 376 -182 1609 -173 1634 3 7 18 17 34 20 62 16 366 142 486 202
139 70 229 126 280 178 18 18 75 93 126 167 52 74 185 258 296 409 281 385
308 423 438 620 180 274 314 517 432 784 65 149 88 230 104 371 7 55 16 138
22 185 7 60 18 103 40 146 30 60 30 61 20 144 -6 47 -11 90 -11 96 0 7 26 13
63 16 72 6 132 30 196 79 24 19 56 41 70 50 43 26 74 118 75 224 1 81 -2 95
-27 137 -27 46 -36 107 -49 338 -1 8 27 80 62 160 37 84 74 190 89 252 15 62
31 108 38 108 20 0 27 22 9 32 -23 13 -20 27 9 38 15 6 25 17 25 30 0 23 -4
24 -31 10 -17 -10 -19 -7 -19 34 l0 44 44 6 c96 15 177 99 290 302 79 142 266
567 266 604 0 5 -21 0 -46 -10 -100 -43 -319 -121 -435 -155 -187 -55 -291
-113 -381 -214 -41 -45 -68 -56 -68 -26 0 27 80 198 140 299 163 273 400 545
655 752 326 264 723 642 843 803 78 104 115 175 147 287 62 215 99 459 99 669
1 177 -15 248 -58 264 -33 13 -47 2 -76 -63 -32 -71 -61 -184 -131 -517 -57
-271 -99 -417 -129 -444 -62 -56 -89 65 -110 489 -19 385 -44 510 -114 575
-25 24 -27 24 -44 8 -26 -27 -27 -223 -2 -568 23 -321 27 -598 10 -674 -26
-117 -104 -223 -218 -298 -67 -43 -170 -92 -178 -84 -3 2 -16 78 -30 168 -23
151 -79 422 -170 824 -82 362 -163 538 -251 538 -70 0 -68 -43 18 -310 169
-529 213 -740 213 -1033 0 -239 -22 -337 -129 -567 -62 -134 -183 -333 -256
-421 -74 -89 -153 -145 -208 -145 -76 0 -205 120 -265 246 -77 160 -101 328
-90 633 7 202 7 202 -15 214 -83 44 -154 -230 -155 -595 0 -152 2 -177 22
-234 28 -78 68 -141 155 -245 110 -131 115 -157 65 -288 -18 -45 -32 -99 -32
-118 l-1 -35 -43 4 c-27 2 -59 -3 -82 -14 -33 -15 -61 -17 -187 -13 l-148 4
-75 39 c-54 27 -87 38 -118 37 -41 0 -45 3 -113 80 -83 94 -127 160 -134 202
-4 22 5 61 30 131 125 341 185 597 185 786 0 120 -19 188 -63 225 l-32 27 -7
-34 c-4 -19 -21 -106 -38 -194 -92 -464 -197 -745 -279 -745 -11 0 -49 25 -83
56 -98 88 -353 275 -583 429 -298 198 -389 295 -416 445 -14 80 2 150 53 226
41 60 94 91 190 109 40 8 109 21 154 29 162 31 286 101 416 233 73 75 188 224
188 245 0 5 -24 -7 -52 -28 -392 -286 -661 -384 -898 -328 -85 20 -110 43
-110 104 0 123 76 316 286 729 164 322 171 351 63 282z"/>
</g>
</svg>
