<?xml version="1.0" encoding="UTF-8" standalone="no"?>
<!DOCTYPE svg PUBLIC "-//W3C//DTD SVG 1.1//EN" "http://www.w3.org/Graphics/SVG/1.1/DTD/svg11.dtd">
<svg width="100%" height="100%" viewBox="0 0 150 150" version="1.1" xmlns="http://www.w3.org/2000/svg" xmlns:xlink="http://www.w3.org/1999/xlink" xml:space="preserve" xmlns:serif="http://www.serif.com/" style="fill-rule:evenodd;clip-rule:evenodd;stroke-linejoin:round;stroke-miterlimit:2;">
    <g id="insta" transform="matrix(1,0,0,1,149,149)">
        <g transform="matrix(0.334821,0,0,0.334821,-159.714,-159.714)">
            <path d="M349.33,69.33C400.477,69.483 442.517,111.523 442.67,162.67L442.67,349.33C442.517,400.477 400.477,442.517 349.33,442.67L162.67,442.67C111.523,442.517 69.483,400.477 69.33,349.33L69.33,162.67C69.483,111.523 111.523,69.483 162.67,69.33L349.33,69.33M349.33,32L162.67,32C90.8,32 32,90.8 32,162.67L32,349.33C32,421.2 90.8,480 162.67,480L349.33,480C421.2,480 480,421.2 480,349.33L480,162.67C480,90.8 421.2,32 349.33,32Z" style="fill:white;fill-rule:nonzero;"/>
        </g>
        <g transform="matrix(0.334821,0,0,0.334821,-159.714,-159.714)">
            <path d="M377.33,162.67C361.97,162.67 349.33,150.03 349.33,134.67C349.33,119.31 361.97,106.67 377.33,106.67C392.69,106.67 405.33,119.31 405.33,134.67C405.33,134.69 405.33,134.71 405.33,134.73C405.33,150.057 392.717,162.67 377.39,162.67C377.37,162.67 377.35,162.67 377.33,162.67Z" style="fill:white;fill-rule:nonzero;"/>
        </g>
        <g transform="matrix(0.334821,0,0,0.334821,-159.714,-159.714)">
            <path d="M256,181.33C296.963,181.33 330.67,215.037 330.67,256C330.67,296.963 296.963,330.67 256,330.67C215.037,330.67 181.33,296.963 181.33,256C181.374,215.054 215.054,181.374 256,181.33M256,144C194.559,144 144,194.559 144,256C144,317.441 194.559,368 256,368C317.441,368 368,317.441 368,256C368,194.559 317.441,144 256,144Z" style="fill:white;fill-rule:nonzero;"/>
        </g>
    </g>
</svg>
