<?xml version="1.0" encoding="UTF-8" standalone="no"?>
<!DOCTYPE svg PUBLIC "-//W3C//DTD SVG 1.1//EN" "http://www.w3.org/Graphics/SVG/1.1/DTD/svg11.dtd">
<svg width="150" height="150" viewBox="0 0 150 150" version="1.1" xmlns="http://www.w3.org/2000/svg" xmlns:xlink="http://www.w3.org/1999/xlink" xml:space="preserve" xmlns:serif="http://www.serif.com/" style="fill-rule:evenodd;clip-rule:evenodd;stroke-linejoin:round;stroke-miterlimit:2;">
    <path d="M75,0C116.394,0 150,33.606 150,75C150,116.394 116.394,150 75,150C33.606,150 0,116.394 0,75C0,33.606 33.606,0 75,0ZM50.654,48.052C49.767,48.245 48.847,48.347 47.904,48.347C40.819,48.347 35.068,42.596 35.068,35.512C35.068,28.427 40.819,22.676 47.904,22.676C54.988,22.676 60.74,28.427 60.74,35.512C60.74,39.168 59.208,42.469 56.752,44.807C57.82,48.772 59.514,52.006 61.683,54.686C65.879,52.615 70.602,51.451 75.594,51.451C77.366,51.451 79.104,51.598 80.799,51.88C81.183,50.813 81.515,49.713 81.792,48.577C79.282,46.839 77.636,43.939 77.636,40.657C77.636,35.344 81.95,31.03 87.263,31.03C92.576,31.03 96.89,35.344 96.89,40.657C96.89,45.795 92.856,49.999 87.786,50.27C87.239,51.3 86.772,52.326 86.381,53.349C94.392,56.271 100.89,62.356 104.359,70.092C106.563,69.362 108.712,68.37 110.804,67.102C110.671,66.379 110.601,65.633 110.601,64.871C110.601,58.108 116.091,52.618 122.854,52.618C129.616,52.618 135.106,58.108 135.106,64.871C135.106,71.633 129.616,77.123 122.854,77.123C119.103,77.123 115.744,75.434 113.496,72.776C110.784,73.552 108.417,74.651 106.332,76.017C106.835,78.251 107.101,80.574 107.101,82.958C107.101,84.909 106.923,86.818 106.583,88.671C103.956,87.259 100.954,86.458 97.765,86.458C87.461,86.458 79.095,94.824 79.095,105.129C79.095,108.317 79.896,111.32 81.307,113.946C79.455,114.286 77.545,114.464 75.594,114.464C71.664,114.464 67.901,113.743 64.433,112.427C64.144,113.148 63.911,113.885 63.734,114.637C65.308,116.474 66.259,118.859 66.259,121.465C66.259,127.262 61.553,131.968 55.757,131.968C49.961,131.968 45.255,127.262 45.255,121.465C45.255,115.669 49.961,110.963 55.757,110.963C56.332,110.963 56.897,111.01 57.447,111.099C57.866,110.601 58.237,110.055 58.557,109.458C49.854,103.848 44.088,94.071 44.088,82.958C44.088,73.018 48.7,64.148 55.9,58.371C54.848,54.751 53.121,51.306 50.654,48.052ZM97.765,92.954C104.485,92.954 109.94,98.409 109.94,105.129C109.94,111.848 104.485,117.304 97.765,117.304C91.046,117.304 85.59,111.848 85.59,105.129C85.59,98.409 91.046,92.954 97.765,92.954ZM41.642,95.802C40.275,96.194 38.831,96.403 37.338,96.403C28.715,96.403 21.714,89.402 21.714,80.779C21.714,72.156 28.715,65.155 37.338,65.155C39.183,65.155 40.953,65.475 42.596,66.063C39.298,70.372 37.338,75.758 37.338,81.598C37.338,86.851 38.924,91.737 41.642,95.802Z" style="fill:white;"/>
</svg>
