<?xml version="1.0" encoding="UTF-8" standalone="no"?>
<!DOCTYPE svg PUBLIC "-//W3C//DTD SVG 1.1//EN" "http://www.w3.org/Graphics/SVG/1.1/DTD/svg11.dtd">
<svg width="100%" height="100%" viewBox="0 0 150 150" version="1.1" xmlns="http://www.w3.org/2000/svg" xmlns:xlink="http://www.w3.org/1999/xlink" xml:space="preserve" xmlns:serif="http://www.serif.com/" style="fill-rule:evenodd;clip-rule:evenodd;stroke-linejoin:round;stroke-miterlimit:2;">
    <g transform="matrix(0.3125,0,0,0.3125,-5,-5.00013)">
        <path d="M496,109.5C477.995,117.323 458.944,122.478 439.45,124.8C459.931,112.807 475.345,93.74 482.78,71.2C463.411,82.526 442.255,90.473 420.22,94.7C401.476,75.056 375.462,63.95 348.31,64C293.89,64 249.85,107.4 249.85,160.9C249.811,168.342 250.664,175.761 252.39,183C173.522,179.303 99.764,142.496 49.39,81.7C40.646,96.44 36.021,113.262 36,130.4C36,164 53.53,193.7 80,211.1C64.318,210.728 48.955,206.577 35.22,199L35.22,200.2C35.22,247.2 69.22,286.3 114.22,295.2C105.758,297.456 97.038,298.599 88.28,298.6C82.066,298.611 75.866,298.008 69.77,296.8C82.28,335.3 118.69,363.3 161.82,364.1C126.78,391.104 83.738,405.707 39.5,405.6C31.646,405.588 23.8,405.121 16,404.2C61.007,432.939 113.34,448.145 166.74,448C348.1,448 447.18,300.3 447.18,172.2C447.18,168 447.07,163.8 446.87,159.7C466.101,146.021 482.738,129.021 496,109.5Z" style="fill:white;fill-rule:nonzero;"/>
    </g>
</svg>
